HIERARCHY
ROOT Hips
{
  OFFSET 74.0196 97.4445 -31.1285
  CHANNELS 6 Xposition Yposition Zposition Zrotation Xrotation Yrotation
  JOINT RightUpLeg
  {
    OFFSET -8.9458 -8.66707 0.101652
    CHANNELS 3 Zrotation Xrotation Yrotation
    JOINT RightLeg
    {
      OFFSET -2.94875e-013 -44.4227 1.3727
      CHANNELS 3 Zrotation Xrotation Yrotation
      JOINT RightFoot
      {
        OFFSET 0.253549 -42.0924 -1.46059
        CHANNELS 3 Zrotation Xrotation Yrotation
        JOINT RightToes
        {
          OFFSET 0.04 -4.41509 8.4991
          CHANNELS 3 Zrotation Xrotation Yrotation
          End Site
          {
            OFFSET -0.08 -0.137448 9.77979
          }
        }
      }
    }
  }
  JOINT Spine
  {
    OFFSET -5.68434e-014 11.8905 -6.39488e-014
    CHANNELS 3 Zrotation Xrotation Yrotation
    JOINT Spine1
    {
      OFFSET 5.68434e-014 25.6574 0.127663
      CHANNELS 3 Zrotation Xrotation Yrotation
      JOINT HEad
      {
        OFFSET 4.26326e-014 8.73416 0.011341
        CHANNELS 3 Zrotation Xrotation Yrotation
        End Site
        {
          OFFSET -0.29 12.7742 2.51395
        }
      }
      JOINT LeftShoulder1
      {
        OFFSET 8.99 -0.362252 -0.22
        CHANNELS 3 Zrotation Xrotation Yrotation
        JOINT LeftArm
        {
          OFFSET 10.2827 -0.00338 0.322123
          CHANNELS 3 Zrotation Xrotation Yrotation
          JOINT LeftForeArm
          {
            OFFSET 32.7669 0.099144 -1.42434
            CHANNELS 3 Zrotation Xrotation Yrotation
            JOINT LeftHand
            {
              OFFSET 27.5643 0.085362 1.02216
              CHANNELS 3 Zrotation Xrotation Yrotation
              End Site
              {
                OFFSET 16.7443 -0.6 1.50291
              }
            }
          }
        }
      }
      JOINT RightShoulder
      {
        OFFSET -8.99 -0.362252 -0.22
        CHANNELS 3 Zrotation Xrotation Yrotation
        JOINT RightArm
        {
          OFFSET -10.2827 -0.00338 0.322123
          CHANNELS 3 Zrotation Xrotation Yrotation
          JOINT RightForeArm
          {
            OFFSET -32.8971 0.099144 -1.42434
            CHANNELS 3 Zrotation Xrotation Yrotation
            JOINT RightHand
            {
              OFFSET -27.4921 0.085362 1.02216
              CHANNELS 3 Zrotation Xrotation Yrotation
              End Site
              {
                OFFSET -16.6312 -0.6 1.50291
              }
            }
          }
        }
      }
    }
  }
  JOINT LeftUpLeg
  {
    OFFSET 8.9458 -8.66707 0.101652
    CHANNELS 3 Zrotation Xrotation Yrotation
    JOINT LeftLeg
    {
      OFFSET 7.10543e-014 -44.4227 1.3727
      CHANNELS 3 Zrotation Xrotation Yrotation
      JOINT LeftFoot
      {
        OFFSET -0.253549 -42.0924 -1.46059
        CHANNELS 3 Zrotation Xrotation Yrotation
        JOINT LeftToes
        {
          OFFSET -0.04 -4.41509 8.4991
          CHANNELS 3 Zrotation Xrotation Yrotation
          End Site
          {
            OFFSET 0.08 -0.047448 9.77979
          }
        }
      }
    }
  }
}
MOTION
Frames:	9
Frame Time:	0.0166667
65.5022 89.6069 60.9785 -2.03283 2.67814 -153.174 -21.0795 -2.56489 -1.19898 6.07368 42.5951 -4.16456 3.02309 -9.50822 -0.134684 -32.2839 -41.5878 -16.6434 -2.26546 8.84634 4.86991 -3.62582 17.0458 10.6666 -6.3479 -12.2366 12.6883 -5.03302e-021 -3.88251e-019 1.21329e-020 -57.6427 -37.9148 -9.97844 -4.86929 34.7643 -117.752 25.7909 4.13592 -21.3496 10.9553 2.87033 17.5362 74.2779 -33.7645 48.9365 -10.5645 52.6352 136.476 -20.9499 15.2879 -34.5493 15.4855 -39.643 -0.801898 13.5873 52.3297 -36.5045 -28.0956 1.05733 2.15637 8.75332 -12.4036 -3.25641 
64.1769 90.0784 60.3916 -1.56884 2.07768 -155.149 -21.0607 -2.75482 -0.931751 4.1492 40.9738 -1.42796 4.35819 -10.0266 -0.0963314 -29.5443 -39.4465 -14.7311 -2.06105 8.23606 5.17167 -3.32712 15.9029 11.1462 -6.83353 -11.615 14.1691 -5.03302e-021 -3.88251e-019 1.21329e-020 -52.2658 -39.9764 -6.02802 -7.15243 36.1927 -117.121 23.4469 4.33277 -23.0513 11.1908 2.89305 17.4119 73.0472 -31.7588 47.3557 -10.1759 52.4451 135.011 -21.2728 15.3115 -34.2115 17.1481 -38.8362 -0.798098 11.5725 52.7814 -30.463 -24.2187 -0.395551 1.54535 7.64491 -10.4886 -1.68877 
62.7469 90.5935 59.7774 -0.909628 1.39335 -157.281 -20.7781 -3.19456 -0.70245 1.93499 39.294 1.50556 5.91925 -10.1483 -0.0580739 -26.9608 -37.1536 -13.1613 -1.79105 7.51153 5.43374 -2.84353 14.5355 11.5291 -7.34959 -10.7891 15.8793 -5.03302e-021 -3.88251e-019 1.21329e-020 -45.5038 -43.3317 -1.47664 -10.0404 38.4299 -114.965 21.1167 4.51233 -25.1839 11.7254 2.97808 17.3639 71.3868 -29.6087 45.3014 -9.56136 52.1469 133.362 -21.6364 15.3095 -33.693 18.9148 -37.6314 -0.909197 9.48957 52.4121 -24.2694 -20.5784 -1.79263 1.06168 6.33432 -8.50009 -0.638401 
61.2783 91.1103 59.1398 -0.0858133 0.671855 -159.31 -20.2445 -3.82629 -0.50572 -0.301966 37.7247 4.28454 7.53465 -9.6646 -0.0515588 -24.8534 -35.0213 -12.2197 -1.45788 6.70526 5.59134 -2.14432 13.0034 11.7011 -7.85766 -9.76777 17.8024 -5.03302e-021 -3.88251e-019 1.21329e-020 -37.3125 -47.6398 3.60841 -13.5711 41.0409 -110.67 19.1706 4.62313 -27.5689 12.6367 3.14587 17.4306 69.2421 -27.4213 42.8029 -8.669 51.7123 131.601 -21.9583 15.2585 -32.993 20.5523 -36.1222 -1.11118 8.01484 51.076 -19.0746 -17.6292 -2.54249 0.794885 5.30651 -7.03612 -0.0989329 
59.8251 91.5928 58.4774 0.890967 -0.0275752 -160.939 -19.4836 -4.55956 -0.333685 -2.2925 36.4638 6.57387 9.04012 -8.49552 -0.110576 -23.3629 -33.2898 -11.9851 -1.05486 5.84973 5.57536 -1.22247 11.3701 11.5408 -8.28381 -8.56599 19.8833 -5.03302e-021 -3.88251e-019 1.21329e-020 -28.1912 -52.0228 8.68061 -17.3183 43.1435 -104.158 18.1084 4.59296 -29.6215 13.9685 3.4142 17.647 66.6001 -25.2634 39.9213 -7.52887 51.0517 129.889 -22.1105 15.1434 -32.1992 21.8618 -34.4294 -1.3513 7.73471 48.7448 -15.8564 -15.587 -2.24385 0.740612 4.97768 -6.57646 0.0548626 
58.4203 92.0069 57.7848 2.0236 -0.642512 -161.887 -18.539 -5.29596 -0.187992 -3.80045 35.7145 8.08916 10.307 -6.69139 -0.253323 -22.4678 -32.0516 -12.3568 -0.567875 4.9745 5.33332 -0.115174 9.69449 10.9579 -8.52317 -7.21571 22.0058 -5.03302e-021 -3.88251e-019 1.21329e-020 -19.5987 -55.5821 12.3416 -19.9787 43.9337 -96.4156 18.5839 4.32341 -30.326 15.6816 3.78941 18.0369 63.5566 -23.1803 36.7993 -6.26988 50.0598 128.46 -21.9612 14.9667 -31.4736 22.7598 -32.6802 -1.5748 8.78126 45.4839 -15.0072 -14.5617 -0.872655 0.857599 5.52135 -7.31414 -0.0578557 
57.0784 92.3221 57.0551 3.30754 -1.11853 -161.937 -17.4852 -5.94189 -0.0825397 -4.63085 35.6215 8.61581 11.2511 -4.41623 -0.471407 -22.0006 -31.2181 -13.104 0.00236156 4.10851 4.85038 1.08354 8.03104 9.93067 -8.45259 -5.78168 23.9789 -5.03302e-021 -3.88251e-019 1.21329e-020 -13.5468 -58.0105 12.7192 -19.7691 43.483 -89.1772 21.2364 3.85338 -28.3979 17.6166 4.25655 18.6054 60.366 -21.2587 33.7105 -5.07937 48.7155 127.554 -21.4436 14.7525 -30.9979 23.2955 -30.9953 -1.75233 10.7687 41.4354 -16.2702 -14.5867 1.18087 1.10814 6.81206 -9.07713 -0.324867 
55.8033 92.5197 56.2843 4.70392 -1.41834 -160.978 -16.4272 -6.40377 -0.0359271 -4.62289 36.196 8.01514 11.8265 -1.92766 -0.729208 -21.672 -30.5444 -13.9231 0.613511 3.2856 4.16149 2.22864 6.44184 8.52663 -7.95091 -4.38029 25.5436 -5.03302e-021 -3.88251e-019 1.21329e-020 -11.4679 -59.5184 8.57933 -15.6413 42.8366 -83.851 26.0361 3.76952 -22.6489 19.4994 4.77251 19.3338 57.4167 -19.7123 31.0732 -4.11748 47.1885 127.3 -20.6214 14.5395 -30.8975 23.5964 -29.4911 -1.88379 13.0405 36.8422 -18.9933 -15.526 3.28102 1.45329 8.50006 -11.3952 -0.623493 
54.5981 92.6005 55.4744 6.12768 -1.53217 -159.02 -15.4817 -6.5838 -0.0580158 -3.6608 37.2786 6.23708 12.0206 0.437823 -0.9716 -21.1311 -29.7012 -14.5212 1.17697 2.54864 3.35027 3.15155 5.00881 6.90172 -6.92835 -3.19375 26.4072 -5.03302e-021 -3.88251e-019 1.21329e-020 -15.8951 -54.0428 -2.86677 -6.77017 36.4183 -81.5518 31.2541 5.48979 -11.8698 20.9978 5.26714 20.1796 55.1323 -18.9162 29.4068 -3.45265 45.8674 127.654 -19.6923 14.373 -31.2045 23.7768 -28.2846 -1.96605 15.0095 32.0467 -22.4687 -17.0074 4.85296 1.82068 10.2032 -13.7377 -0.855239 
